<svg width="40" height="40" viewBox="0 0 40 40" fill="none" xmlns="http://www.w3.org/2000/svg">
    <path fill-rule="evenodd" clip-rule="evenodd" d="M20 40C31.0457 40 40 31.0457 40 20C40 8.9543 31.0457 0 20 0C8.9543 0 0 8.9543 0 20C0 31.0457 8.9543 40 20 40Z" fill="#9B9B9B"/>
    <mask id="mask0" mask-type="alpha" maskUnits="userSpaceOnUse" x="0" y="0" width="40" height="40">
        <path fill-rule="evenodd" clip-rule="evenodd" d="M20 40C31.0457 40 40 31.0457 40 20C40 8.9543 31.0457 0 20 0C8.9543 0 0 8.9543 0 20C0 31.0457 8.9543 40 20 40Z" fill="white"/>
    </mask>
    <g mask="url(#mask0)">
        <rect width="40" height="40" fill="#D8D8E4"/>
        <path fill-rule="evenodd" clip-rule="evenodd" d="M19.85 22.2C20.8833 22.2 22.0167 22.35 23.25 22.65C24.65 23 25.7833 23.4667 26.65 24.05C27.6833 24.7333 28.2 25.5 28.2 26.35V28.45H11.5V26.35C11.5 25.5 12.0167 24.7333 13.05 24.05C13.9167 23.4667 15.05 23 16.45 22.65C17.6833 22.35 18.8167 22.2 19.85 22.2ZM19.85 20.1C19.1 20.1 18.4083 19.9125 17.775 19.5375C17.1416 19.1625 16.6375 18.6583 16.2625 18.025C15.8875 17.3917 15.7 16.7 15.7 15.95C15.7 15.2 15.8875 14.5 16.2625 13.85C16.6375 13.2 17.1416 12.6875 17.775 12.3125C18.4083 11.9375 19.1 11.75 19.85 11.75C20.6 11.75 21.2916 11.9375 21.925 12.3125C22.5583 12.6875 23.0625 13.2 23.4375 13.85C23.8125 14.5 24 15.2 24 15.95C24 16.7 23.8125 17.3917 23.4375 18.025C23.0625 18.6583 22.5583 19.1625 21.925 19.5375C21.2916 19.9125 20.6 20.1 19.85 20.1Z" fill="white"/>
    </g>
</svg>

