<svg width="40" height="40" viewBox="0 0 40 40" fill="none" xmlns="http://www.w3.org/2000/svg">
    <g opacity="0.5">
        <path d="M20 39.5C19.6789 39.5 19.3596 39.4922 19.0424 39.4769L19.0182 39.9763C18.358 39.9444 17.7062 39.8805 17.0643 39.7861L17.1371 39.2914C16.5007 39.1978 15.8745 39.0735 15.2598 38.92L15.1387 39.4051C14.4998 39.2455 13.873 39.0553 13.2601 38.8359L13.4286 38.3652C12.8251 38.1492 12.2354 37.9043 11.661 37.6322L11.447 38.0841C10.8535 37.8029 10.2762 37.4934 9.71663 37.1573L9.97408 36.7287C9.42587 36.3994 8.89515 36.0439 8.38366 35.664L8.0855 36.0653C7.55949 35.6746 7.05333 35.2586 6.56881 34.8192L6.9047 34.4488C6.4318 34.02 5.98003 33.5682 5.55116 33.0953L5.18078 33.4312C4.74138 32.9467 4.32542 32.4405 3.93467 31.9145L4.33604 31.6163C3.95608 31.1048 3.6006 30.5741 3.27132 30.0259L2.84269 30.2834C2.50659 29.7238 2.19709 29.1465 1.91594 28.553L2.36779 28.339C2.09567 27.7646 1.8508 27.1749 1.63484 26.5714L1.16408 26.7399C0.944744 26.127 0.754474 25.5002 0.59493 24.8613L1.08003 24.7402C0.926542 24.1255 0.802214 23.4993 0.708614 22.8629L0.213937 22.9357C0.119515 22.2938 0.0555885 21.642 0.0236752 20.9818L0.523092 20.9576C0.507758 20.6404 0.5 20.3211 0.5 20C0.5 19.6789 0.507758 19.3596 0.523092 19.0424L0.0236752 19.0182C0.0555886 18.358 0.119515 17.7062 0.213937 17.0643L0.708614 17.1371C0.802214 16.5007 0.926542 15.8745 1.08003 15.2598L0.594931 15.1387C0.754474 14.4998 0.944745 13.873 1.16408 13.2601L1.63484 13.4286C1.8508 12.8251 2.09567 12.2354 2.36779 11.661L1.91594 11.447C2.19709 10.8535 2.50659 10.2762 2.84269 9.71663L3.27132 9.97408C3.6006 9.42587 3.95608 8.89515 4.33604 8.38366L3.93467 8.0855C4.32542 7.55949 4.74138 7.05333 5.18079 6.56881L5.55116 6.9047C5.98003 6.4318 6.4318 5.98003 6.9047 5.55116L6.56881 5.18078C7.05333 4.74138 7.55949 4.32542 8.0855 3.93467L8.38366 4.33604C8.89515 3.95608 9.42587 3.6006 9.97408 3.27132L9.71663 2.84269C10.2762 2.50659 10.8535 2.19709 11.447 1.91594L11.661 2.36779C12.2354 2.09567 12.8251 1.8508 13.4286 1.63484L13.2601 1.16408C13.873 0.944744 14.4998 0.754474 15.1387 0.59493L15.2598 1.08003C15.8745 0.926542 16.5007 0.802214 17.1371 0.708614L17.0643 0.213937C17.7062 0.119515 18.358 0.0555885 19.0182 0.0236752L19.0424 0.523092C19.3596 0.507758 19.6789 0.5 20 0.5C20.3211 0.5 20.6404 0.507758 20.9576 0.523092L20.9818 0.0236752C21.642 0.0555885 22.2938 0.119515 22.9357 0.213937L22.8629 0.708614C23.4993 0.802214 24.1255 0.926542 24.7402 1.08003L24.8613 0.594931C25.5002 0.754474 26.127 0.944744 26.7399 1.16408L26.5714 1.63484C27.1749 1.8508 27.7646 2.09567 28.339 2.36779L28.553 1.91594C29.1465 2.19709 29.7238 2.50659 30.2834 2.84269L30.0259 3.27132C30.5741 3.6006 31.1048 3.95608 31.6163 4.33604L31.9145 3.93467C32.4405 4.32542 32.9467 4.74138 33.4312 5.18078L33.0953 5.55116C33.5682 5.98003 34.02 6.4318 34.4488 6.9047L34.8192 6.56881C35.2586 7.05333 35.6746 7.55949 36.0653 8.0855L35.664 8.38366C36.0439 8.89515 36.3994 9.42587 36.7287 9.97408L37.1573 9.71663C37.4934 10.2762 37.8029 10.8535 38.0841 11.447L37.6322 11.661C37.9043 12.2354 38.1492 12.8251 38.3652 13.4286L38.8359 13.2601C39.0553 13.873 39.2455 14.4998 39.4051 15.1387L38.92 15.2598C39.0735 15.8745 39.1978 16.5007 39.2914 17.1371L39.7861 17.0643C39.8805 17.7062 39.9444 18.358 39.9763 19.0182L39.4769 19.0424C39.4922 19.3596 39.5 19.6789 39.5 20C39.5 20.3211 39.4922 20.6404 39.4769 20.9576L39.9763 20.9818C39.9444 21.642 39.8805 22.2938 39.7861 22.9357L39.2914 22.8629C39.1978 23.4993 39.0735 24.1255 38.92 24.7402L39.4051 24.8613C39.2455 25.5002 39.0553 26.127 38.8359 26.7399L38.3652 26.5714C38.1492 27.1749 37.9043 27.7646 37.6322 28.339L38.0841 28.553C37.8029 29.1465 37.4934 29.7238 37.1573 30.2834L36.7287 30.0259C36.3994 30.5741 36.0439 31.1048 35.664 31.6163L36.0653 31.9145C35.6746 32.4405 35.2586 32.9467 34.8192 33.4312L34.4488 33.0953C34.02 33.5682 33.5682 34.02 33.0953 34.4488L33.4312 34.8192C32.9467 35.2586 32.4405 35.6746 31.9145 36.0653L31.6163 35.664C31.1048 36.0439 30.5741 36.3994 30.0259 36.7287L30.2834 37.1573C29.7238 37.4934 29.1465 37.8029 28.553 38.0841L28.339 37.6322C27.7646 37.9043 27.1749 38.1492 26.5714 38.3652L26.7399 38.8359C26.127 39.0553 25.5002 39.2455 24.8613 39.4051L24.7402 38.92C24.1255 39.0735 23.4993 39.1978 22.8629 39.2914L22.9357 39.7861C22.2938 39.8805 21.642 39.9444 20.9818 39.9763L20.9576 39.4769C20.6404 39.4922 20.3211 39.5 20 39.5Z" stroke="#9898AE" stroke-dasharray="2 2"/>
        <path fill-rule="evenodd" clip-rule="evenodd" d="M27.52 20.8533H20.8533V27.52H18.6667V20.8533H12V18.6667H18.6667V12H20.8533V18.6667H27.52V20.8533Z" fill="#9898AE"/>
    </g>
</svg>

