<svg width="18" height="18" viewBox="0 0 18 18" fill="none" xmlns="http://www.w3.org/2000/svg">
    <path opacity="0.75" fill-rule="evenodd" clip-rule="evenodd" d="M8.99993 15.68C10.1999 15.68 11.3199 15.3733 12.3599 14.76C13.3733 14.1733 14.1733 13.3733 14.7599 12.36C15.3733 11.32 15.6799 10.2 15.6799 8.99999C15.6799 7.79999 15.3733 6.68 14.7599 5.63999C14.1733 4.62665 13.3733 3.82666 12.3599 3.23999C11.3199 2.62666 10.1999 2.31999 8.99993 2.31999C7.79993 2.31999 6.67994 2.62666 5.63993 3.23999C4.62659 3.82666 3.8266 4.62665 3.23993 5.63999C2.6266 6.68 2.31993 7.79999 2.31993 8.99999C2.31993 10.2 2.6266 11.32 3.23993 12.36C3.8266 13.3733 4.62659 14.1733 5.63993 14.76C6.67994 15.3733 7.79993 15.68 8.99993 15.68ZM8.99993 0.679993C10.5199 0.679993 11.9266 1.05999 13.2199 1.81999C14.4733 2.54 15.4599 3.52665 16.1799 4.77999C16.9399 6.07333 17.3199 7.47998 17.3199 8.99999C17.3199 10.52 16.9399 11.9267 16.1799 13.22C15.4599 14.4733 14.4733 15.46 13.2199 16.18C11.9266 16.94 10.5199 17.32 8.99993 17.32C7.47992 17.32 6.07327 16.94 4.77993 16.18C3.52659 15.4467 2.53994 14.4533 1.81993 13.2C1.05993 11.9067 0.679932 10.5067 0.679932 8.99999C0.679932 7.49332 1.05993 6.09333 1.81993 4.79999C2.55327 3.54665 3.54659 2.55333 4.79993 1.81999C6.09327 1.05999 7.49326 0.679993 8.99993 0.679993ZM9.81993 4.81999V8.17999H13.1799V9.81999H9.81993V13.18H8.17993V9.81999H4.81993V8.17999H8.17993V4.81999H9.81993Z" fill="#CCCCD7"/>

</svg>
